<?xml version="1.0" encoding="iso-8859-1"?>
<!-- Generator: Adobe Illustrator 19.0.0, SVG Export Plug-In . SVG Version: 6.00 Build 0)  -->
<svg version="1.1" id="Capa_1" xmlns="http://www.w3.org/2000/svg" xmlns:xlink="http://www.w3.org/1999/xlink" x="0px" y="0px"
	 viewBox="0 0 512 512" style="enable-background:new 0 0 512 512;" xml:space="preserve">
<polygon style="fill:#FDE6C5;" points="502,502 10,502 10,10 379,10 502,133 "/>
<polygon style="fill:#F9C587;" points="379,10.063 379,133.063 502,133.063 "/>
<g>
	<rect x="174.38" y="10.06" style="fill:#F2FCFB;" width="163.49" height="171.16"/>
	<rect x="337.87" y="181.22" style="fill:#F2FCFB;" width="164.13" height="163.49"/>
	<rect x="174.38" y="344.71" style="fill:#F2FCFB;" width="163.49" height="157.28"/>
	<rect x="10" y="181.22" style="fill:#F2FCFB;" width="164.38" height="163.49"/>
</g>
<path d="M509.071,125.928l-123-123C384.195,1.054,381.652,0,379,0H10C4.478,0,0,4.477,0,10v492c0,5.523,4.478,10,10,10h492
	c5.522,0,10-4.477,10-10V133C512,130.347,510.946,127.804,509.071,125.928z M389,34.142l88.921,88.92H389V34.142z M20,492V20h349
	v113.063c0,5.523,4.478,10,10,10h113V492H20z"/>
<path d="M455.096,354.715c5.522,0,10-4.477,10-10s-4.478-10-10-10H347.873V191.223h107.223c5.522,0,10-4.477,10-10s-4.478-10-10-10
	H347.873v-10.889c0-5.523-4.478-10-10-10s-10,4.477-10,10v10.889H184.381V64c0-5.523-4.478-10-10-10s-10,4.477-10,10v107.223H57.158
	c-5.522,0-10,4.477-10,10s4.478,10,10,10h107.223v143.492H79c-5.522,0-10,4.477-10,10s4.478,10,10,10h85.381v107.223
	c0,5.523,4.478,10,10,10s10-4.477,10-10V354.715h143.492v107.223c0,5.523,4.478,10,10,10s10-4.477,10-10V354.715H455.096z
	 M184.381,334.715V191.223h143.492v143.492L184.381,334.715L184.381,334.715z"/>
<path d="M256.127,154c27.57,0,50-22.43,50-50s-22.43-50-50-50s-50,22.43-50,50S228.557,154,256.127,154z M256.127,74
	c16.542,0,30,13.458,30,30s-13.458,30-30,30s-30-13.458-30-30S239.585,74,256.127,74z"/>
<path d="M415.483,369.483c-27.57,0-50,22.43-50,50s22.43,50,50,50s50-22.43,50-50S443.054,369.483,415.483,369.483z
	 M415.483,449.483c-16.542,0-30-13.458-30-30s13.458-30,30-30s30,13.458,30,30S432.025,449.483,415.483,449.483z"/>
<path d="M96.771,369.483c-27.57,0-50,22.43-50,50s22.43,50,50,50s50-22.43,50-50S124.341,369.483,96.771,369.483z M96.771,449.483
	c-16.542,0-30-13.458-30-30s13.458-30,30-30s30,13.458,30,30S113.313,449.483,96.771,449.483z"/>
<path d="M450.838,230.771c-3.906-3.905-10.236-3.905-14.143,0l-21.213,21.213l-21.213-21.213c-3.906-3.905-10.236-3.905-14.143,0
	c-3.905,3.905-3.905,10.237,0,14.143l21.213,21.213l-21.213,21.213c-3.905,3.905-3.905,10.237,0,14.143
	c1.953,1.953,4.512,2.929,7.071,2.929s5.118-0.976,7.071-2.929l21.213-21.213l21.213,21.213c1.953,1.953,4.512,2.929,7.071,2.929
	s5.118-0.976,7.071-2.929c3.905-3.905,3.905-10.237,0-14.143l-21.213-21.213l21.213-21.213
	C454.743,241.009,454.743,234.677,450.838,230.771z"/>
<path d="M291.482,384.128c-3.906-3.905-10.236-3.905-14.143,0l-21.213,21.213l-21.213-21.213c-3.906-3.905-10.236-3.905-14.143,0
	c-3.905,3.905-3.905,10.237,0,14.143l21.213,21.213l-21.213,21.213c-3.905,3.905-3.905,10.237,0,14.143
	c1.953,1.953,4.512,2.929,7.071,2.929s5.118-0.976,7.071-2.929l21.213-21.213l21.213,21.213c1.953,1.953,4.512,2.929,7.071,2.929
	s5.118-0.976,7.071-2.929c3.905-3.905,3.905-10.237,0-14.143l-21.213-21.213l21.213-21.213
	C295.388,394.365,295.388,388.033,291.482,384.128z"/>
<path d="M61.416,301.482c1.953,1.953,4.512,2.929,7.071,2.929s5.118-0.976,7.071-2.929l21.213-21.213l21.213,21.213
	c1.953,1.953,4.512,2.929,7.071,2.929s5.118-0.976,7.071-2.929c3.905-3.905,3.905-10.237,0-14.143l-21.213-21.213l21.213-21.213
	c3.905-3.905,3.905-10.237,0-14.143c-3.906-3.905-10.236-3.905-14.143,0L96.77,251.983L75.557,230.77
	c-3.906-3.905-10.236-3.905-14.143,0c-3.905,3.905-3.905,10.237,0,14.143l21.213,21.213L61.416,287.34
	C57.511,291.245,57.511,297.577,61.416,301.482z"/>
<path d="M337.87,137c2.63,0,5.21-1.07,7.069-2.93c1.87-1.86,2.931-4.44,2.931-7.07s-1.061-5.21-2.931-7.07
	c-1.859-1.86-4.43-2.93-7.069-2.93c-2.63,0-5.21,1.07-7.07,2.93c-1.86,1.86-2.93,4.44-2.93,7.07s1.069,5.21,2.93,7.07
	S335.24,137,337.87,137z"/>
<path d="M55.33,344.72c0-2.64-1.061-5.21-2.931-7.08c-1.859-1.86-4.43-2.92-7.069-2.92c-2.63,0-5.21,1.06-7.07,2.92
	c-1.86,1.87-2.93,4.44-2.93,7.08c0,2.63,1.069,5.2,2.93,7.07c1.86,1.86,4.44,2.92,7.07,2.92s5.21-1.06,7.069-2.92
	C54.27,349.93,55.33,347.35,55.33,344.72z"/>
<g>
</g>
<g>
</g>
<g>
</g>
<g>
</g>
<g>
</g>
<g>
</g>
<g>
</g>
<g>
</g>
<g>
</g>
<g>
</g>
<g>
</g>
<g>
</g>
<g>
</g>
<g>
</g>
<g>
</g>
</svg>
